<mxfile host="65bd71144e" modified="2021-10-29T04:15:26.649Z" agent="5.0 (Windows NT 10.0; Win64; x64) AppleWebKit/537.36 (KHTML, like Gecko) Code/1.61.2 Chrome/91.0.4472.164 Electron/13.5.1 Safari/537.36" version="15.6.2" etag="z79RJjFDKB2eprinKL8d" type="embed" pages="4">
    <diagram id="jVODoIawKENRUlGQ4qS0" name="*店舗情報管理_登録">
        <mxGraphModel dx="1604" dy="430" grid="1" gridSize="10" guides="1" tooltips="1" connect="1" arrows="1" fold="1" page="1" pageScale="1" pageWidth="827" pageHeight="1169" math="0" shadow="0">
            <root>
                <mxCell id="0"/>
                <mxCell id="1" parent="0"/>
                <mxCell id="2" value="ログイン済&lt;br&gt;ホーム画面" style="shape=umlBoundary;whiteSpace=wrap;html=1;fillColor=#dae8fc;strokeColor=#6c8ebf;" vertex="1" parent="1">
                    <mxGeometry x="120" y="40" width="100" height="80" as="geometry"/>
                </mxCell>
                <mxCell id="3" value="店舗情報&lt;br&gt;一覧画面" style="shape=umlBoundary;whiteSpace=wrap;html=1;fillColor=#dae8fc;strokeColor=#6c8ebf;" vertex="1" parent="1">
                    <mxGeometry x="120" y="160" width="100" height="80" as="geometry"/>
                </mxCell>
                <mxCell id="4" value="店舗情報を取得する" style="ellipse;shape=umlControl;whiteSpace=wrap;html=1;fillColor=#f8cecc;strokeColor=#b85450;" vertex="1" parent="1">
                    <mxGeometry x="420" y="40" width="70" height="80" as="geometry"/>
                </mxCell>
                <mxCell id="5" value="" style="endArrow=classic;html=1;rounded=0;exitX=1;exitY=0.5;exitDx=0;exitDy=0;exitPerimeter=0;entryX=-0.019;entryY=0.489;entryDx=0;entryDy=0;entryPerimeter=0;" edge="1" parent="1" source="2" target="4">
                    <mxGeometry width="50" height="50" relative="1" as="geometry">
                        <mxPoint x="240" y="80" as="sourcePoint"/>
                        <mxPoint x="400" y="80" as="targetPoint"/>
                    </mxGeometry>
                </mxCell>
                <mxCell id="6" value="「店舗情報マスタ」&lt;br&gt;を押下" style="text;html=1;strokeColor=none;fillColor=none;align=center;verticalAlign=middle;whiteSpace=wrap;rounded=0;" vertex="1" parent="1">
                    <mxGeometry x="230" y="40" width="160" height="30" as="geometry"/>
                </mxCell>
                <mxCell id="7" value="管理者" style="shape=umlActor;verticalLabelPosition=bottom;verticalAlign=top;html=1;" vertex="1" parent="1">
                    <mxGeometry x="-40" y="170" width="30" height="60" as="geometry"/>
                </mxCell>
                <mxCell id="8" value="新規登録&lt;br&gt;画面" style="shape=umlBoundary;whiteSpace=wrap;html=1;fillColor=#dae8fc;strokeColor=#6c8ebf;" vertex="1" parent="1">
                    <mxGeometry x="120" y="280" width="100" height="80" as="geometry"/>
                </mxCell>
                <mxCell id="9" value="店舗情報" style="ellipse;shape=umlEntity;whiteSpace=wrap;html=1;fillColor=#d5e8d4;strokeColor=#82b366;" vertex="1" parent="1">
                    <mxGeometry x="710" y="160" width="80" height="80" as="geometry"/>
                </mxCell>
                <mxCell id="10" value="" style="endArrow=classic;html=1;rounded=0;exitX=1;exitY=0.5;exitDx=0;exitDy=0;exitPerimeter=0;startArrow=classic;startFill=1;" edge="1" parent="1">
                    <mxGeometry width="50" height="50" relative="1" as="geometry">
                        <mxPoint x="511.3299999999999" y="79.88" as="sourcePoint"/>
                        <mxPoint x="690" y="199.9999999999999" as="targetPoint"/>
                    </mxGeometry>
                </mxCell>
                <mxCell id="11" value="" style="endArrow=none;html=1;rounded=0;startArrow=classic;startFill=1;endFill=0;" edge="1" parent="1">
                    <mxGeometry width="50" height="50" relative="1" as="geometry">
                        <mxPoint x="230" y="199.9999999999999" as="sourcePoint"/>
                        <mxPoint x="410" y="90" as="targetPoint"/>
                    </mxGeometry>
                </mxCell>
                <mxCell id="12" value="表示する" style="ellipse;shape=umlControl;whiteSpace=wrap;html=1;fillColor=#f8cecc;strokeColor=#b85450;" vertex="1" parent="1">
                    <mxGeometry x="420" y="200" width="70" height="80" as="geometry"/>
                </mxCell>
                <mxCell id="13" value="" style="endArrow=none;html=1;rounded=0;startArrow=classic;startFill=1;endFill=0;" edge="1" parent="1">
                    <mxGeometry width="50" height="50" relative="1" as="geometry">
                        <mxPoint x="410" y="239.9999999999999" as="sourcePoint"/>
                        <mxPoint x="240" y="199.9999999999999" as="targetPoint"/>
                    </mxGeometry>
                </mxCell>
                <mxCell id="14" value="" style="endArrow=none;html=1;rounded=0;startArrow=classic;startFill=1;endFill=0;" edge="1" parent="1">
                    <mxGeometry width="50" height="50" relative="1" as="geometry">
                        <mxPoint x="240" y="320" as="sourcePoint"/>
                        <mxPoint x="410" y="249.9999999999999" as="targetPoint"/>
                    </mxGeometry>
                </mxCell>
                <mxCell id="15" value="入力データ検証" style="ellipse;shape=umlControl;whiteSpace=wrap;html=1;fillColor=#f8cecc;strokeColor=#b85450;" vertex="1" parent="1">
                    <mxGeometry x="420" y="360" width="70" height="80" as="geometry"/>
                </mxCell>
                <mxCell id="16" value="" style="endArrow=classic;html=1;rounded=0;startArrow=classic;startFill=1;endFill=1;" edge="1" parent="1">
                    <mxGeometry width="50" height="50" relative="1" as="geometry">
                        <mxPoint x="400" y="400" as="sourcePoint"/>
                        <mxPoint x="240" y="330" as="targetPoint"/>
                    </mxGeometry>
                </mxCell>
                <mxCell id="17" value="登録する" style="ellipse;shape=umlControl;whiteSpace=wrap;html=1;fillColor=#f8cecc;strokeColor=#b85450;" vertex="1" parent="1">
                    <mxGeometry x="420" y="520" width="70" height="80" as="geometry"/>
                </mxCell>
                <mxCell id="18" value="" style="endArrow=none;html=1;rounded=0;startArrow=classic;startFill=1;endFill=0;" edge="1" parent="1" source="17">
                    <mxGeometry width="50" height="50" relative="1" as="geometry">
                        <mxPoint x="410" y="410" as="sourcePoint"/>
                        <mxPoint x="455" y="450" as="targetPoint"/>
                    </mxGeometry>
                </mxCell>
                <mxCell id="19" value="" style="endArrow=none;html=1;rounded=0;startArrow=classic;startFill=1;endFill=0;" edge="1" parent="1">
                    <mxGeometry width="50" height="50" relative="1" as="geometry">
                        <mxPoint x="690" y="209.9999999999999" as="sourcePoint"/>
                        <mxPoint x="500" y="560" as="targetPoint"/>
                    </mxGeometry>
                </mxCell>
                <mxCell id="20" value="データ入力" style="text;html=1;strokeColor=none;fillColor=none;align=center;verticalAlign=middle;whiteSpace=wrap;rounded=0;" vertex="1" parent="1">
                    <mxGeometry x="290" y="350" width="160" height="30" as="geometry"/>
                </mxCell>
                <mxCell id="21" value="「新規登録」&lt;br&gt;を押下" style="text;html=1;strokeColor=none;fillColor=none;align=center;verticalAlign=middle;whiteSpace=wrap;rounded=0;" vertex="1" parent="1">
                    <mxGeometry x="270" y="185" width="160" height="30" as="geometry"/>
                </mxCell>
                <mxCell id="22" value="入力エラー時は&lt;br&gt;エラーメッセージを表示" style="text;html=1;strokeColor=none;fillColor=none;align=center;verticalAlign=middle;whiteSpace=wrap;rounded=0;" vertex="1" parent="1">
                    <mxGeometry x="210" y="380" width="160" height="30" as="geometry"/>
                </mxCell>
                <mxCell id="23" value="" style="endArrow=classic;html=1;rounded=0;" edge="1" parent="1">
                    <mxGeometry width="50" height="50" relative="1" as="geometry">
                        <mxPoint y="199.9999999999999" as="sourcePoint"/>
                        <mxPoint x="110" y="199.9999999999999" as="targetPoint"/>
                    </mxGeometry>
                </mxCell>
                <mxCell id="24" value="" style="endArrow=classic;html=1;rounded=0;" edge="1" parent="1">
                    <mxGeometry width="50" height="50" relative="1" as="geometry">
                        <mxPoint y="199.9999999999999" as="sourcePoint"/>
                        <mxPoint x="110" y="320" as="targetPoint"/>
                    </mxGeometry>
                </mxCell>
                <mxCell id="25" value="" style="endArrow=classic;html=1;rounded=0;" edge="1" parent="1">
                    <mxGeometry width="50" height="50" relative="1" as="geometry">
                        <mxPoint y="199.9999999999999" as="sourcePoint"/>
                        <mxPoint x="110" y="80" as="targetPoint"/>
                    </mxGeometry>
                </mxCell>
            </root>
        </mxGraphModel>
    </diagram>
    <diagram id="5ZNruh4ZVD2B1KleNrwZ" name="*店舗情報管理_参照">
        <mxGraphModel dx="1604" dy="430" grid="1" gridSize="10" guides="1" tooltips="1" connect="1" arrows="1" fold="1" page="1" pageScale="1" pageWidth="827" pageHeight="1169" math="0" shadow="0">
            <root>
                <mxCell id="_Xc9pogUit78ZWq-bMxw-0"/>
                <mxCell id="_Xc9pogUit78ZWq-bMxw-1" parent="_Xc9pogUit78ZWq-bMxw-0"/>
                <mxCell id="_Xc9pogUit78ZWq-bMxw-2" value="管理者&lt;br&gt;正規社員" style="shape=umlActor;verticalLabelPosition=bottom;verticalAlign=top;html=1;" vertex="1" parent="_Xc9pogUit78ZWq-bMxw-1">
                    <mxGeometry x="-70" y="160" width="30" height="60" as="geometry"/>
                </mxCell>
                <mxCell id="_Xc9pogUit78ZWq-bMxw-3" value="ログイン済&lt;br&gt;ホーム画面" style="shape=umlBoundary;whiteSpace=wrap;html=1;fillColor=#dae8fc;strokeColor=#6c8ebf;" vertex="1" parent="_Xc9pogUit78ZWq-bMxw-1">
                    <mxGeometry x="120" y="40" width="100" height="80" as="geometry"/>
                </mxCell>
                <mxCell id="_Xc9pogUit78ZWq-bMxw-4" value="店舗情報&lt;br&gt;一覧画面" style="shape=umlBoundary;whiteSpace=wrap;html=1;fillColor=#dae8fc;strokeColor=#6c8ebf;" vertex="1" parent="_Xc9pogUit78ZWq-bMxw-1">
                    <mxGeometry x="120" y="160" width="100" height="80" as="geometry"/>
                </mxCell>
                <mxCell id="_Xc9pogUit78ZWq-bMxw-5" value="店舗情報を取得する" style="ellipse;shape=umlControl;whiteSpace=wrap;html=1;fillColor=#f8cecc;strokeColor=#b85450;" vertex="1" parent="_Xc9pogUit78ZWq-bMxw-1">
                    <mxGeometry x="420" y="40" width="70" height="80" as="geometry"/>
                </mxCell>
                <mxCell id="_Xc9pogUit78ZWq-bMxw-6" value="店舗情報" style="ellipse;shape=umlEntity;whiteSpace=wrap;html=1;fillColor=#d5e8d4;strokeColor=#82b366;" vertex="1" parent="_Xc9pogUit78ZWq-bMxw-1">
                    <mxGeometry x="640" y="120" width="80" height="80" as="geometry"/>
                </mxCell>
                <mxCell id="_Xc9pogUit78ZWq-bMxw-7" value="表示する" style="ellipse;shape=umlControl;whiteSpace=wrap;html=1;fillColor=#f8cecc;strokeColor=#b85450;" vertex="1" parent="_Xc9pogUit78ZWq-bMxw-1">
                    <mxGeometry x="420" y="210" width="70" height="80" as="geometry"/>
                </mxCell>
                <mxCell id="_Xc9pogUit78ZWq-bMxw-8" value="詳細画面" style="shape=umlBoundary;whiteSpace=wrap;html=1;fillColor=#dae8fc;strokeColor=#6c8ebf;" vertex="1" parent="_Xc9pogUit78ZWq-bMxw-1">
                    <mxGeometry x="120" y="280" width="100" height="80" as="geometry"/>
                </mxCell>
                <mxCell id="_Xc9pogUit78ZWq-bMxw-9" value="" style="endArrow=classic;html=1;rounded=0;exitX=1;exitY=0.5;exitDx=0;exitDy=0;exitPerimeter=0;entryX=-0.019;entryY=0.489;entryDx=0;entryDy=0;entryPerimeter=0;" edge="1" parent="_Xc9pogUit78ZWq-bMxw-1" source="_Xc9pogUit78ZWq-bMxw-3" target="_Xc9pogUit78ZWq-bMxw-5">
                    <mxGeometry width="50" height="50" relative="1" as="geometry">
                        <mxPoint x="240" y="80" as="sourcePoint"/>
                        <mxPoint x="400" y="80" as="targetPoint"/>
                    </mxGeometry>
                </mxCell>
                <mxCell id="_Xc9pogUit78ZWq-bMxw-10" value="「店舗情報マスタ」&lt;br&gt;を押下" style="text;html=1;strokeColor=none;fillColor=none;align=center;verticalAlign=middle;whiteSpace=wrap;rounded=0;" vertex="1" parent="_Xc9pogUit78ZWq-bMxw-1">
                    <mxGeometry x="230" y="40" width="160" height="30" as="geometry"/>
                </mxCell>
                <mxCell id="_Xc9pogUit78ZWq-bMxw-11" value="" style="endArrow=classic;html=1;rounded=0;" edge="1" parent="_Xc9pogUit78ZWq-bMxw-1">
                    <mxGeometry width="50" height="50" relative="1" as="geometry">
                        <mxPoint x="410" y="90" as="sourcePoint"/>
                        <mxPoint x="240" y="200" as="targetPoint"/>
                    </mxGeometry>
                </mxCell>
                <mxCell id="_Xc9pogUit78ZWq-bMxw-12" value="" style="endArrow=classic;html=1;rounded=0;" edge="1" parent="_Xc9pogUit78ZWq-bMxw-1">
                    <mxGeometry width="50" height="50" relative="1" as="geometry">
                        <mxPoint x="240" y="210" as="sourcePoint"/>
                        <mxPoint x="410" y="260" as="targetPoint"/>
                    </mxGeometry>
                </mxCell>
                <mxCell id="_Xc9pogUit78ZWq-bMxw-13" value="" style="endArrow=classic;html=1;rounded=0;" edge="1" parent="_Xc9pogUit78ZWq-bMxw-1">
                    <mxGeometry width="50" height="50" relative="1" as="geometry">
                        <mxPoint x="400" y="270" as="sourcePoint"/>
                        <mxPoint x="240" y="320" as="targetPoint"/>
                    </mxGeometry>
                </mxCell>
                <mxCell id="_Xc9pogUit78ZWq-bMxw-14" value="" style="endArrow=classic;html=1;rounded=0;startArrow=classic;startFill=1;" edge="1" parent="_Xc9pogUit78ZWq-bMxw-1">
                    <mxGeometry width="50" height="50" relative="1" as="geometry">
                        <mxPoint x="500" y="80" as="sourcePoint"/>
                        <mxPoint x="620" y="160" as="targetPoint"/>
                    </mxGeometry>
                </mxCell>
                <mxCell id="_Xc9pogUit78ZWq-bMxw-15" value="" style="endArrow=classic;html=1;rounded=0;" edge="1" parent="_Xc9pogUit78ZWq-bMxw-1">
                    <mxGeometry width="50" height="50" relative="1" as="geometry">
                        <mxPoint x="-30" y="200" as="sourcePoint"/>
                        <mxPoint x="110" y="200" as="targetPoint"/>
                    </mxGeometry>
                </mxCell>
                <mxCell id="_Xc9pogUit78ZWq-bMxw-16" value="" style="endArrow=classic;html=1;rounded=0;" edge="1" parent="_Xc9pogUit78ZWq-bMxw-1">
                    <mxGeometry width="50" height="50" relative="1" as="geometry">
                        <mxPoint x="-20" y="200" as="sourcePoint"/>
                        <mxPoint x="110" y="320" as="targetPoint"/>
                    </mxGeometry>
                </mxCell>
                <mxCell id="_Xc9pogUit78ZWq-bMxw-17" value="" style="endArrow=classic;html=1;rounded=0;" edge="1" parent="_Xc9pogUit78ZWq-bMxw-1">
                    <mxGeometry width="50" height="50" relative="1" as="geometry">
                        <mxPoint x="-30" y="200" as="sourcePoint"/>
                        <mxPoint x="110" y="80" as="targetPoint"/>
                    </mxGeometry>
                </mxCell>
            </root>
        </mxGraphModel>
    </diagram>
    <diagram id="ZYYMmXFtu3Mk22IIMQfh" name="*店舗情報管理_編集">
        <mxGraphModel dx="1604" dy="430" grid="1" gridSize="10" guides="1" tooltips="1" connect="1" arrows="1" fold="1" page="1" pageScale="1" pageWidth="827" pageHeight="1169" math="0" shadow="0">
            <root>
                <mxCell id="93FAG6MfeEpUxxQnHOZV-0"/>
                <mxCell id="93FAG6MfeEpUxxQnHOZV-1" parent="93FAG6MfeEpUxxQnHOZV-0"/>
                <mxCell id="lndVjVRq391jAt9fA8WN-0" value="管理者" style="shape=umlActor;verticalLabelPosition=bottom;verticalAlign=top;html=1;" vertex="1" parent="93FAG6MfeEpUxxQnHOZV-1">
                    <mxGeometry x="-70" y="160" width="30" height="60" as="geometry"/>
                </mxCell>
                <mxCell id="lndVjVRq391jAt9fA8WN-1" value="ログイン済&lt;br&gt;ホーム画面" style="shape=umlBoundary;whiteSpace=wrap;html=1;fillColor=#dae8fc;strokeColor=#6c8ebf;" vertex="1" parent="93FAG6MfeEpUxxQnHOZV-1">
                    <mxGeometry x="120" y="40" width="100" height="80" as="geometry"/>
                </mxCell>
                <mxCell id="lndVjVRq391jAt9fA8WN-2" value="店舗情報&lt;br&gt;一覧画面" style="shape=umlBoundary;whiteSpace=wrap;html=1;fillColor=#dae8fc;strokeColor=#6c8ebf;" vertex="1" parent="93FAG6MfeEpUxxQnHOZV-1">
                    <mxGeometry x="120" y="160" width="100" height="80" as="geometry"/>
                </mxCell>
                <mxCell id="lndVjVRq391jAt9fA8WN-3" value="店舗情報を取得する" style="ellipse;shape=umlControl;whiteSpace=wrap;html=1;fillColor=#f8cecc;strokeColor=#b85450;" vertex="1" parent="93FAG6MfeEpUxxQnHOZV-1">
                    <mxGeometry x="420" y="40" width="70" height="80" as="geometry"/>
                </mxCell>
                <mxCell id="lndVjVRq391jAt9fA8WN-4" value="店舗情報" style="ellipse;shape=umlEntity;whiteSpace=wrap;html=1;fillColor=#d5e8d4;strokeColor=#82b366;" vertex="1" parent="93FAG6MfeEpUxxQnHOZV-1">
                    <mxGeometry x="640" y="120" width="80" height="80" as="geometry"/>
                </mxCell>
                <mxCell id="lndVjVRq391jAt9fA8WN-5" value="表示する" style="ellipse;shape=umlControl;whiteSpace=wrap;html=1;fillColor=#f8cecc;strokeColor=#b85450;" vertex="1" parent="93FAG6MfeEpUxxQnHOZV-1">
                    <mxGeometry x="420" y="210" width="70" height="80" as="geometry"/>
                </mxCell>
                <mxCell id="lndVjVRq391jAt9fA8WN-6" value="詳細画面" style="shape=umlBoundary;whiteSpace=wrap;html=1;fillColor=#dae8fc;strokeColor=#6c8ebf;" vertex="1" parent="93FAG6MfeEpUxxQnHOZV-1">
                    <mxGeometry x="120" y="280" width="100" height="80" as="geometry"/>
                </mxCell>
                <mxCell id="lndVjVRq391jAt9fA8WN-7" value="" style="endArrow=classic;html=1;rounded=0;exitX=1;exitY=0.5;exitDx=0;exitDy=0;exitPerimeter=0;entryX=-0.019;entryY=0.489;entryDx=0;entryDy=0;entryPerimeter=0;" edge="1" parent="93FAG6MfeEpUxxQnHOZV-1" source="lndVjVRq391jAt9fA8WN-1" target="lndVjVRq391jAt9fA8WN-3">
                    <mxGeometry width="50" height="50" relative="1" as="geometry">
                        <mxPoint x="240" y="80" as="sourcePoint"/>
                        <mxPoint x="400" y="80" as="targetPoint"/>
                    </mxGeometry>
                </mxCell>
                <mxCell id="lndVjVRq391jAt9fA8WN-8" value="「店舗情報マスタ」&lt;br&gt;を押下" style="text;html=1;strokeColor=none;fillColor=none;align=center;verticalAlign=middle;whiteSpace=wrap;rounded=0;" vertex="1" parent="93FAG6MfeEpUxxQnHOZV-1">
                    <mxGeometry x="230" y="40" width="160" height="30" as="geometry"/>
                </mxCell>
                <mxCell id="lndVjVRq391jAt9fA8WN-9" value="" style="endArrow=classic;html=1;rounded=0;" edge="1" parent="93FAG6MfeEpUxxQnHOZV-1">
                    <mxGeometry width="50" height="50" relative="1" as="geometry">
                        <mxPoint x="410" y="90" as="sourcePoint"/>
                        <mxPoint x="240" y="199.99999999999977" as="targetPoint"/>
                    </mxGeometry>
                </mxCell>
                <mxCell id="lndVjVRq391jAt9fA8WN-10" value="" style="endArrow=classic;html=1;rounded=0;" edge="1" parent="93FAG6MfeEpUxxQnHOZV-1">
                    <mxGeometry width="50" height="50" relative="1" as="geometry">
                        <mxPoint x="240" y="209.99999999999977" as="sourcePoint"/>
                        <mxPoint x="410" y="259.9999999999998" as="targetPoint"/>
                    </mxGeometry>
                </mxCell>
                <mxCell id="lndVjVRq391jAt9fA8WN-11" value="" style="endArrow=classic;html=1;rounded=0;startArrow=classic;startFill=1;" edge="1" parent="93FAG6MfeEpUxxQnHOZV-1">
                    <mxGeometry width="50" height="50" relative="1" as="geometry">
                        <mxPoint x="400" y="269.9999999999998" as="sourcePoint"/>
                        <mxPoint x="240" y="320" as="targetPoint"/>
                    </mxGeometry>
                </mxCell>
                <mxCell id="lndVjVRq391jAt9fA8WN-12" value="" style="endArrow=classic;html=1;rounded=0;startArrow=classic;startFill=1;" edge="1" parent="93FAG6MfeEpUxxQnHOZV-1">
                    <mxGeometry width="50" height="50" relative="1" as="geometry">
                        <mxPoint x="500" y="80" as="sourcePoint"/>
                        <mxPoint x="620" y="159.99999999999977" as="targetPoint"/>
                    </mxGeometry>
                </mxCell>
                <mxCell id="lndVjVRq391jAt9fA8WN-13" value="編集画面" style="shape=umlBoundary;whiteSpace=wrap;html=1;fillColor=#dae8fc;strokeColor=#6c8ebf;" vertex="1" parent="93FAG6MfeEpUxxQnHOZV-1">
                    <mxGeometry x="120" y="400" width="100" height="80" as="geometry"/>
                </mxCell>
                <mxCell id="lndVjVRq391jAt9fA8WN-14" value="" style="endArrow=classic;html=1;rounded=0;" edge="1" parent="93FAG6MfeEpUxxQnHOZV-1">
                    <mxGeometry width="50" height="50" relative="1" as="geometry">
                        <mxPoint x="410" y="279.9999999999998" as="sourcePoint"/>
                        <mxPoint x="240" y="430" as="targetPoint"/>
                    </mxGeometry>
                </mxCell>
                <mxCell id="lndVjVRq391jAt9fA8WN-15" value="入力データ検証" style="ellipse;shape=umlControl;whiteSpace=wrap;html=1;fillColor=#f8cecc;strokeColor=#b85450;" vertex="1" parent="93FAG6MfeEpUxxQnHOZV-1">
                    <mxGeometry x="420" y="400" width="70" height="80" as="geometry"/>
                </mxCell>
                <mxCell id="lndVjVRq391jAt9fA8WN-16" value="" style="endArrow=classic;html=1;rounded=0;startArrow=classic;startFill=1;" edge="1" parent="93FAG6MfeEpUxxQnHOZV-1">
                    <mxGeometry width="50" height="50" relative="1" as="geometry">
                        <mxPoint x="240" y="440" as="sourcePoint"/>
                        <mxPoint x="410" y="440" as="targetPoint"/>
                    </mxGeometry>
                </mxCell>
                <mxCell id="lndVjVRq391jAt9fA8WN-17" value="更新する" style="ellipse;shape=umlControl;whiteSpace=wrap;html=1;fillColor=#f8cecc;strokeColor=#b85450;" vertex="1" parent="93FAG6MfeEpUxxQnHOZV-1">
                    <mxGeometry x="520" y="520" width="70" height="80" as="geometry"/>
                </mxCell>
                <mxCell id="lndVjVRq391jAt9fA8WN-18" value="" style="endArrow=classic;html=1;rounded=0;" edge="1" parent="93FAG6MfeEpUxxQnHOZV-1" target="lndVjVRq391jAt9fA8WN-17">
                    <mxGeometry width="50" height="50" relative="1" as="geometry">
                        <mxPoint x="490" y="490" as="sourcePoint"/>
                        <mxPoint x="250" y="440" as="targetPoint"/>
                    </mxGeometry>
                </mxCell>
                <mxCell id="lndVjVRq391jAt9fA8WN-19" value="" style="endArrow=classic;html=1;rounded=0;" edge="1" parent="93FAG6MfeEpUxxQnHOZV-1">
                    <mxGeometry width="50" height="50" relative="1" as="geometry">
                        <mxPoint x="600" y="520" as="sourcePoint"/>
                        <mxPoint x="680" y="209.99999999999977" as="targetPoint"/>
                    </mxGeometry>
                </mxCell>
                <mxCell id="lndVjVRq391jAt9fA8WN-20" value="" style="endArrow=classic;html=1;rounded=0;" edge="1" parent="93FAG6MfeEpUxxQnHOZV-1">
                    <mxGeometry width="50" height="50" relative="1" as="geometry">
                        <mxPoint x="-30" y="200" as="sourcePoint"/>
                        <mxPoint x="110" y="200" as="targetPoint"/>
                    </mxGeometry>
                </mxCell>
                <mxCell id="lndVjVRq391jAt9fA8WN-21" value="" style="endArrow=classic;html=1;rounded=0;" edge="1" parent="93FAG6MfeEpUxxQnHOZV-1">
                    <mxGeometry width="50" height="50" relative="1" as="geometry">
                        <mxPoint x="-30" y="200" as="sourcePoint"/>
                        <mxPoint x="110" y="80" as="targetPoint"/>
                    </mxGeometry>
                </mxCell>
                <mxCell id="lndVjVRq391jAt9fA8WN-22" value="" style="endArrow=classic;html=1;rounded=0;" edge="1" parent="93FAG6MfeEpUxxQnHOZV-1">
                    <mxGeometry width="50" height="50" relative="1" as="geometry">
                        <mxPoint x="-30" y="200" as="sourcePoint"/>
                        <mxPoint x="110" y="320" as="targetPoint"/>
                    </mxGeometry>
                </mxCell>
                <mxCell id="lndVjVRq391jAt9fA8WN-23" value="" style="endArrow=classic;html=1;rounded=0;" edge="1" parent="93FAG6MfeEpUxxQnHOZV-1">
                    <mxGeometry width="50" height="50" relative="1" as="geometry">
                        <mxPoint x="-30" y="200" as="sourcePoint"/>
                        <mxPoint x="110" y="440" as="targetPoint"/>
                    </mxGeometry>
                </mxCell>
            </root>
        </mxGraphModel>
    </diagram>
    <diagram id="qbqidalhQFrXY6O5so0-" name="店舗情報管理_削除">
        <mxGraphModel dx="1604" dy="430" grid="1" gridSize="10" guides="1" tooltips="1" connect="1" arrows="1" fold="1" page="1" pageScale="1" pageWidth="827" pageHeight="1169" math="0" shadow="0">
            <root>
                <mxCell id="pgIEK5VLe9uCVyxUXyG3-0"/>
                <mxCell id="pgIEK5VLe9uCVyxUXyG3-1" parent="pgIEK5VLe9uCVyxUXyG3-0"/>
                <mxCell id="BuymapO6wXgAYLyDvu3Y-0" value="管理者" style="shape=umlActor;verticalLabelPosition=bottom;verticalAlign=top;html=1;" vertex="1" parent="pgIEK5VLe9uCVyxUXyG3-1">
                    <mxGeometry x="-70" y="160" width="30" height="60" as="geometry"/>
                </mxCell>
                <mxCell id="BuymapO6wXgAYLyDvu3Y-1" value="ログイン済&lt;br&gt;ホーム画面" style="shape=umlBoundary;whiteSpace=wrap;html=1;fillColor=#dae8fc;strokeColor=#6c8ebf;" vertex="1" parent="pgIEK5VLe9uCVyxUXyG3-1">
                    <mxGeometry x="120" y="40" width="100" height="80" as="geometry"/>
                </mxCell>
                <mxCell id="BuymapO6wXgAYLyDvu3Y-2" value="店舗情報&lt;br&gt;一覧画面" style="shape=umlBoundary;whiteSpace=wrap;html=1;fillColor=#dae8fc;strokeColor=#6c8ebf;" vertex="1" parent="pgIEK5VLe9uCVyxUXyG3-1">
                    <mxGeometry x="120" y="160" width="100" height="80" as="geometry"/>
                </mxCell>
                <mxCell id="BuymapO6wXgAYLyDvu3Y-3" value="店舗情報&lt;br&gt;を取得する" style="ellipse;shape=umlControl;whiteSpace=wrap;html=1;fillColor=#f8cecc;strokeColor=#b85450;" vertex="1" parent="pgIEK5VLe9uCVyxUXyG3-1">
                    <mxGeometry x="420" y="40" width="70" height="80" as="geometry"/>
                </mxCell>
                <mxCell id="BuymapO6wXgAYLyDvu3Y-4" value="店舗情報" style="ellipse;shape=umlEntity;whiteSpace=wrap;html=1;fillColor=#d5e8d4;strokeColor=#82b366;" vertex="1" parent="pgIEK5VLe9uCVyxUXyG3-1">
                    <mxGeometry x="640" y="120" width="80" height="80" as="geometry"/>
                </mxCell>
                <mxCell id="BuymapO6wXgAYLyDvu3Y-5" value="表示する" style="ellipse;shape=umlControl;whiteSpace=wrap;html=1;fillColor=#f8cecc;strokeColor=#b85450;" vertex="1" parent="pgIEK5VLe9uCVyxUXyG3-1">
                    <mxGeometry x="420" y="210" width="70" height="80" as="geometry"/>
                </mxCell>
                <mxCell id="BuymapO6wXgAYLyDvu3Y-6" value="詳細画面" style="shape=umlBoundary;whiteSpace=wrap;html=1;fillColor=#dae8fc;strokeColor=#6c8ebf;" vertex="1" parent="pgIEK5VLe9uCVyxUXyG3-1">
                    <mxGeometry x="120" y="280" width="100" height="80" as="geometry"/>
                </mxCell>
                <mxCell id="BuymapO6wXgAYLyDvu3Y-7" value="" style="endArrow=classic;html=1;rounded=0;exitX=1;exitY=0.5;exitDx=0;exitDy=0;exitPerimeter=0;entryX=-0.019;entryY=0.489;entryDx=0;entryDy=0;entryPerimeter=0;" edge="1" parent="pgIEK5VLe9uCVyxUXyG3-1" source="BuymapO6wXgAYLyDvu3Y-1" target="BuymapO6wXgAYLyDvu3Y-3">
                    <mxGeometry width="50" height="50" relative="1" as="geometry">
                        <mxPoint x="240" y="80" as="sourcePoint"/>
                        <mxPoint x="400" y="80" as="targetPoint"/>
                    </mxGeometry>
                </mxCell>
                <mxCell id="BuymapO6wXgAYLyDvu3Y-8" value="「店舗情報マスタ」&lt;br&gt;を押下" style="text;html=1;strokeColor=none;fillColor=none;align=center;verticalAlign=middle;whiteSpace=wrap;rounded=0;" vertex="1" parent="pgIEK5VLe9uCVyxUXyG3-1">
                    <mxGeometry x="230" y="40" width="160" height="30" as="geometry"/>
                </mxCell>
                <mxCell id="BuymapO6wXgAYLyDvu3Y-9" value="" style="endArrow=classic;html=1;rounded=0;" edge="1" parent="pgIEK5VLe9uCVyxUXyG3-1">
                    <mxGeometry width="50" height="50" relative="1" as="geometry">
                        <mxPoint x="410" y="90" as="sourcePoint"/>
                        <mxPoint x="240" y="200" as="targetPoint"/>
                    </mxGeometry>
                </mxCell>
                <mxCell id="BuymapO6wXgAYLyDvu3Y-10" value="" style="endArrow=classic;html=1;rounded=0;" edge="1" parent="pgIEK5VLe9uCVyxUXyG3-1">
                    <mxGeometry width="50" height="50" relative="1" as="geometry">
                        <mxPoint x="240" y="210" as="sourcePoint"/>
                        <mxPoint x="410" y="260" as="targetPoint"/>
                    </mxGeometry>
                </mxCell>
                <mxCell id="BuymapO6wXgAYLyDvu3Y-11" value="" style="endArrow=classic;html=1;rounded=0;startArrow=classic;startFill=1;" edge="1" parent="pgIEK5VLe9uCVyxUXyG3-1">
                    <mxGeometry width="50" height="50" relative="1" as="geometry">
                        <mxPoint x="500" y="80" as="sourcePoint"/>
                        <mxPoint x="620" y="160" as="targetPoint"/>
                    </mxGeometry>
                </mxCell>
                <mxCell id="BuymapO6wXgAYLyDvu3Y-12" value="削除する" style="ellipse;shape=umlControl;whiteSpace=wrap;html=1;fillColor=#f8cecc;strokeColor=#b85450;" vertex="1" parent="pgIEK5VLe9uCVyxUXyG3-1">
                    <mxGeometry x="414" y="360" width="70" height="80" as="geometry"/>
                </mxCell>
                <mxCell id="BuymapO6wXgAYLyDvu3Y-13" value="" style="endArrow=classic;html=1;rounded=0;" edge="1" parent="pgIEK5VLe9uCVyxUXyG3-1">
                    <mxGeometry width="50" height="50" relative="1" as="geometry">
                        <mxPoint x="490" y="400" as="sourcePoint"/>
                        <mxPoint x="680" y="210" as="targetPoint"/>
                    </mxGeometry>
                </mxCell>
                <mxCell id="BuymapO6wXgAYLyDvu3Y-14" value="" style="endArrow=classic;html=1;rounded=0;" edge="1" parent="pgIEK5VLe9uCVyxUXyG3-1">
                    <mxGeometry width="50" height="50" relative="1" as="geometry">
                        <mxPoint x="400" y="270" as="sourcePoint"/>
                        <mxPoint x="240" y="320" as="targetPoint"/>
                    </mxGeometry>
                </mxCell>
                <mxCell id="BuymapO6wXgAYLyDvu3Y-15" value="" style="endArrow=classic;html=1;rounded=0;" edge="1" parent="pgIEK5VLe9uCVyxUXyG3-1">
                    <mxGeometry width="50" height="50" relative="1" as="geometry">
                        <mxPoint x="240" y="330" as="sourcePoint"/>
                        <mxPoint x="400" y="400" as="targetPoint"/>
                    </mxGeometry>
                </mxCell>
                <mxCell id="BuymapO6wXgAYLyDvu3Y-16" value="" style="endArrow=classic;html=1;rounded=0;" edge="1" parent="pgIEK5VLe9uCVyxUXyG3-1">
                    <mxGeometry width="50" height="50" relative="1" as="geometry">
                        <mxPoint x="-30" y="200" as="sourcePoint"/>
                        <mxPoint x="110" y="200" as="targetPoint"/>
                    </mxGeometry>
                </mxCell>
                <mxCell id="BuymapO6wXgAYLyDvu3Y-17" value="" style="endArrow=classic;html=1;rounded=0;" edge="1" parent="pgIEK5VLe9uCVyxUXyG3-1">
                    <mxGeometry width="50" height="50" relative="1" as="geometry">
                        <mxPoint x="-30" y="200" as="sourcePoint"/>
                        <mxPoint x="110" y="320" as="targetPoint"/>
                    </mxGeometry>
                </mxCell>
                <mxCell id="BuymapO6wXgAYLyDvu3Y-18" value="" style="endArrow=classic;html=1;rounded=0;" edge="1" parent="pgIEK5VLe9uCVyxUXyG3-1">
                    <mxGeometry width="50" height="50" relative="1" as="geometry">
                        <mxPoint x="-30" y="200" as="sourcePoint"/>
                        <mxPoint x="110" y="80" as="targetPoint"/>
                    </mxGeometry>
                </mxCell>
            </root>
        </mxGraphModel>
    </diagram>
</mxfile>